<?xml version="1.0" standalone="no"?><svg xmlns="http://www.w3.org/2000/svg" viewBox="0 0 1440 320"><path fill="#ffffff" fill-opacity="1" d="M0,160L30,176C60,192,120,224,180,234.7C240,245,300,235,360,245.3C420,256,480,288,540,288C600,288,660,256,720,234.7C780,213,840,203,900,181.3C960,160,1020,128,1080,144C1140,160,1200,224,1260,245.3C1320,267,1380,245,1410,234.7L1440,224L1440,320L1410,320C1380,320,1320,320,1260,320C1200,320,1140,320,1080,320C1020,320,960,320,900,320C840,320,780,320,720,320C660,320,600,320,540,320C480,320,420,320,360,320C300,320,240,320,180,320C120,320,60,320,30,320L0,320Z"></path></svg>