<?xml version="1.0" standalone="no"?><svg xmlns="http://www.w3.org/2000/svg" viewBox="0 0 1440 320"><path fill="#ffffff" fill-opacity="0.15" d="M0,32L30,42.7C60,53,120,75,180,122.7C240,171,300,245,360,261.3C420,277,480,235,540,186.7C600,139,660,85,720,96C780,107,840,181,900,197.3C960,213,1020,171,1080,149.3C1140,128,1200,128,1260,144C1320,160,1380,192,1410,208L1440,224L1440,320L1410,320C1380,320,1320,320,1260,320C1200,320,1140,320,1080,320C1020,320,960,320,900,320C840,320,780,320,720,320C660,320,600,320,540,320C480,320,420,320,360,320C300,320,240,320,180,320C120,320,60,320,30,320L0,320Z"></path></svg>