<?xml version="1.0" standalone="no"?><svg xmlns="http://www.w3.org/2000/svg" viewBox="0 0 1440 320"><path fill="#fff" fill-opacity="1" d="M0,288L34.3,272C68.6,256,137,224,206,202.7C274.3,181,343,171,411,176C480,181,549,203,617,197.3C685.7,192,754,160,823,160C891.4,160,960,192,1029,218.7C1097.1,245,1166,267,1234,261.3C1302.9,256,1371,224,1406,208L1440,192L1440,320L1405.7,320C1371.4,320,1303,320,1234,320C1165.7,320,1097,320,1029,320C960,320,891,320,823,320C754.3,320,686,320,617,320C548.6,320,480,320,411,320C342.9,320,274,320,206,320C137.1,320,69,320,34,320L0,320Z"></path></svg>