<?xml version="1.0" standalone="no"?><svg xmlns="http://www.w3.org/2000/svg" viewBox="0 0 1440 320"><path fill="#fff" fill-opacity="0.07" d="M0,160L30,149.3C60,139,120,117,180,90.7C240,64,300,32,360,26.7C420,21,480,43,540,69.3C600,96,660,128,720,128C780,128,840,96,900,101.3C960,107,1020,149,1080,170.7C1140,192,1200,192,1260,165.3C1320,139,1380,85,1410,58.7L1440,32L1440,320L1410,320C1380,320,1320,320,1260,320C1200,320,1140,320,1080,320C1020,320,960,320,900,320C840,320,780,320,720,320C660,320,600,320,540,320C480,320,420,320,360,320C300,320,240,320,180,320C120,320,60,320,30,320L0,320Z"></path></svg>