<svg id="visual" viewBox="0 0 1900 1000" width="1900" height="1000" xmlns="http://www.w3.org/2000/svg" xmlns:xlink="http://www.w3.org/1999/xlink" version="1.1"><path d="M0 749L52.8 769.8C105.7 790.7 211.3 832.3 316.8 854C422.3 875.7 527.7 877.3 633.2 871.2C738.7 865 844.3 851 950 827.2C1055.7 803.3 1161.3 769.7 1266.8 763C1372.3 756.3 1477.7 776.7 1583.2 794.2C1688.7 811.7 1794.3 826.3 1847.2 833.7L1900 841L1900 0L1847.2 0C1794.3 0 1688.7 0 1583.2 0C1477.7 0 1372.3 0 1266.8 0C1161.3 0 1055.7 0 950 0C844.3 0 738.7 0 633.2 0C527.7 0 422.3 0 316.8 0C211.3 0 105.7 0 52.8 0L0 0Z" fill="#0973dc"></path><path d="M0 692L52.8 671.2C105.7 650.3 211.3 608.7 316.8 591.7C422.3 574.7 527.7 582.3 633.2 603.8C738.7 625.3 844.3 660.7 950 673.3C1055.7 686 1161.3 676 1266.8 677.3C1372.3 678.7 1477.7 691.3 1583.2 683.2C1688.7 675 1794.3 646 1847.2 631.5L1900 617L1900 0L1847.2 0C1794.3 0 1688.7 0 1583.2 0C1477.7 0 1372.3 0 1266.8 0C1161.3 0 1055.7 0 950 0C844.3 0 738.7 0 633.2 0C527.7 0 422.3 0 316.8 0C211.3 0 105.7 0 52.8 0L0 0Z" fill="#076aca"></path><path d="M0 540L52.8 527.2C105.7 514.3 211.3 488.7 316.8 476C422.3 463.3 527.7 463.7 633.2 458.5C738.7 453.3 844.3 442.7 950 436.3C1055.7 430 1161.3 428 1266.8 441.8C1372.3 455.7 1477.7 485.3 1583.2 483.8C1688.7 482.3 1794.3 449.7 1847.2 433.3L1900 417L1900 0L1847.2 0C1794.3 0 1688.7 0 1583.2 0C1477.7 0 1372.3 0 1266.8 0C1161.3 0 1055.7 0 950 0C844.3 0 738.7 0 633.2 0C527.7 0 422.3 0 316.8 0C211.3 0 105.7 0 52.8 0L0 0Z" fill="#0661b9"></path><path d="M0 273L52.8 292.2C105.7 311.3 211.3 349.7 316.8 363.2C422.3 376.7 527.7 365.3 633.2 354C738.7 342.7 844.3 331.3 950 326.7C1055.7 322 1161.3 324 1266.8 315.2C1372.3 306.3 1477.7 286.7 1583.2 292.3C1688.7 298 1794.3 329 1847.2 344.5L1900 360L1900 0L1847.2 0C1794.3 0 1688.7 0 1583.2 0C1477.7 0 1372.3 0 1266.8 0C1161.3 0 1055.7 0 950 0C844.3 0 738.7 0 633.2 0C527.7 0 422.3 0 316.8 0C211.3 0 105.7 0 52.8 0L0 0Z" fill="#0658a8"></path><path d="M0 222L52.8 207.2C105.7 192.3 211.3 162.7 316.8 158.2C422.3 153.7 527.7 174.3 633.2 172.3C738.7 170.3 844.3 145.7 950 150.2C1055.7 154.7 1161.3 188.3 1266.8 200.7C1372.3 213 1477.7 204 1583.2 187.3C1688.7 170.7 1794.3 146.3 1847.2 134.2L1900 122L1900 0L1847.2 0C1794.3 0 1688.7 0 1583.2 0C1477.7 0 1372.3 0 1266.8 0C1161.3 0 1055.7 0 950 0C844.3 0 738.7 0 633.2 0C527.7 0 422.3 0 316.8 0C211.3 0 105.7 0 52.8 0L0 0Z" fill="#064f97"></path></svg>